<svg width="50" height="50" viewBox="0 0 50 50" fill="none" xmlns="http://www.w3.org/2000/svg">
<path d="M31.25 25C31.25 28.4519 28.4519 31.25 25 31.25C21.5481 31.25 18.75 28.4519 18.75 25C18.75 21.5481 21.5481 18.75 25 18.75C28.4519 18.75 31.25 21.5481 31.25 25Z" fill="#808080"/>
<path d="M12.5 25C12.5 28.4519 9.70192 31.25 6.25 31.25C2.79808 31.25 0 28.4519 0 25C0 21.5481 2.79808 18.75 6.25 18.75C9.70192 18.75 12.5 21.5481 12.5 25Z" fill="#808080"/>
<path d="M50 25C50 28.4519 47.2019 31.25 43.75 31.25C40.2981 31.25 37.5 28.4519 37.5 25C37.5 21.5481 40.2981 18.75 43.75 18.75C47.2019 18.75 50 21.5481 50 25Z" fill="#808080"/>
</svg>
