<svg xmlns="http://www.w3.org/2000/svg" width="38.177" height="31.131" viewBox="0 0 38.177 31.131">
  <g id="customNewsfeed" transform="translate(-102.847 129.278)">
    <g id="Group_54037" data-name="Group 54037" transform="translate(103.347 -128.778)">
      <path id="Path_2743" data-name="Path 2743" d="M36.811,28.077h-3.17V19.523a5.719,5.719,0,0,0-5.713-5.713H11.06a5.719,5.719,0,0,0-5.713,5.713V37.835a6.113,6.113,0,0,0,6.106,6.107H36.418a6.113,6.113,0,0,0,6.107-6.107V33.79A5.72,5.72,0,0,0,36.811,28.077ZM11.453,40.611a2.779,2.779,0,0,1-2.776-2.776V19.523A2.385,2.385,0,0,1,11.06,17.14H27.929a2.385,2.385,0,0,1,2.383,2.383V37.835a6.127,6.127,0,0,0,.041.687c.008.073.022.143.033.215.023.153.049.3.082.453.018.081.04.16.062.239.037.138.079.274.125.408.027.078.055.155.085.232.053.135.113.267.175.4.023.048.04.1.064.146H11.453Zm27.741-2.776a2.776,2.776,0,0,1-5.552,0V31.407h3.17a2.385,2.385,0,0,1,2.383,2.383v4.045Z" transform="translate(-5.347 -13.81)" fill="none" stroke="#b7b7b7" stroke-width="1"/>
      <path id="Path_2744" data-name="Path 2744" d="M35.268,36.276h-9.39a1.665,1.665,0,1,0,0,3.33h9.39a1.665,1.665,0,0,0,0-3.33Z" transform="translate(-16.359 -26.924)" fill="none" stroke="#b7b7b7" stroke-width="1"/>
      <path id="Path_2745" data-name="Path 2745" d="M35.268,55.724h-9.39a1.665,1.665,0,1,0,0,3.33h9.39a1.665,1.665,0,0,0,0-3.33Z" transform="translate(-16.359 -38.276)" fill="none" stroke="#b7b7b7" stroke-width="1"/>
    </g>
  </g>
</svg>
