<svg id="google-plus_" data-name="google-plus " xmlns="http://www.w3.org/2000/svg" width="44.785" height="44.785" viewBox="0 0 44.785 44.785">
  <path id="Path_482" data-name="Path 482" d="M22.392,0A22.392,22.392,0,1,1,0,22.392,22.458,22.458,0,0,1,22.392,0Z" fill="#fc6363"/>
  <g id="Group_196" data-name="Group 196" transform="translate(8.707 13.724)">
    <path id="Path_483" data-name="Path 483" d="M191.609,121.079v2.491H194.1v2.491h-2.491v2.491h-2.491v-2.491h-2.491V123.57h2.491v-2.491Z" transform="translate(-166.712 -116.147)" fill="#fff"/>
    <path id="Path_484" data-name="Path 484" d="M58.119,103.538a8.9,8.9,0,0,1,.138-12.457,8.539,8.539,0,0,1,9.274-1.8l1.246.692,1.384.969-2.215,2.215-.83-.554a5.286,5.286,0,0,0-6.505.83,5.811,5.811,0,0,0,0,8.028,5.351,5.351,0,0,0,7.751,0,4.417,4.417,0,0,0,1.246-2.215v-.277H64.624V96.2h7.889l.138.692v1.938a7.722,7.722,0,0,1-2.076,4.844A9.173,9.173,0,0,1,58.119,103.538Z" transform="translate(-55.644 -88.641)" fill="#fff"/>
  </g>
</svg>
