<svg xmlns="http://www.w3.org/2000/svg" width="22.616" height="30.78" viewBox="0 0 22.616 30.78">
  <g id="learning" transform="translate(-9.4 -1)">
    <path id="Path_2746" data-name="Path 2746" d="M31.322,17.109a.464.464,0,0,0-.672,0,1.073,1.073,0,0,1-1.537,0,.475.475,0,0,0-.672.672,2.089,2.089,0,0,0,2.881,0A.464.464,0,0,0,31.322,17.109Zm.1-1.248h.864a.48.48,0,1,0,0-.96h-.864a.454.454,0,0,0-.48.48A.481.481,0,0,0,31.418,15.86Zm-2.593-.48a.454.454,0,0,0-.48-.48H27.48a.48.48,0,0,0,0,.96h.864A.516.516,0,0,0,28.825,15.38Z" transform="translate(-9.149 -7.225)" fill="#b7b7b7"/>
    <path id="Path_2747" data-name="Path 2747" d="M31.2,18.815a7.659,7.659,0,0,0-1.3-.576V14.973a.99.99,0,0,0-.48-.816.974.974,0,0,0-.96-.048l-.96.48a2.911,2.911,0,0,0-2.3-1.2H23.613l-.576-.864a6.205,6.205,0,0,0,2.209-2.689c1.345-.24,1.729-2.641.624-3.457C25.726,3.161,23.709,1,20.732,1s-4.994,2.161-5.138,5.378c-1.1.816-.72,3.217.624,3.457a5.939,5.939,0,0,0,2.209,2.689l-.624.912H16.219a2.782,2.782,0,0,0-2.3,1.2l-.96-.48a1.005,1.005,0,0,0-1.441.864v3.265c-.432.144-.864.384-1.3.576a1.446,1.446,0,0,0-.816,1.3v2.833a1.467,1.467,0,0,0,.816,1.3c.384.192.816.384,1.248.576h.048v1.729a.956.956,0,0,0,.528.864l8.451,4.322h0a.522.522,0,0,1,.24-.048.289.289,0,0,0,.192-.048h0l8.451-4.322A.907.907,0,0,0,29.9,26.5V24.769c.432-.144.864-.384,1.3-.576a1.446,1.446,0,0,0,.816-1.3V20.063A1.348,1.348,0,0,0,31.2,18.815ZM20.732,1.96a3.9,3.9,0,0,1,3.889,2.785l-.288-.384a.467.467,0,0,0-.624-.144,5.125,5.125,0,0,1-5.906,0,.427.427,0,0,0-.624.144l-.288.384A3.8,3.8,0,0,1,20.732,1.96Zm-3.7,7.2a.513.513,0,0,0-.432-.336h-.144c-.144,0-.432-.288-.48-.816s.144-.864.288-.912a.467.467,0,0,0,.288-.24l1.152-1.633a5.9,5.9,0,0,0,6.146,0l1.152,1.633a.492.492,0,0,0,.288.24c.144.048.336.384.288.912s-.336.816-.48.816h0a.548.548,0,0,0-.576.288c-.72,1.921-2.161,3.073-3.7,3.073A4.256,4.256,0,0,1,17.035,9.163Zm3.7,4.082A5.029,5.029,0,0,0,22.173,13l.72,1.056a2.986,2.986,0,0,1-2.161,1.969,2.9,2.9,0,0,1-2.161-1.969L19.292,13A5.029,5.029,0,0,0,20.732,13.245ZM16.219,14.4h1.441A4.056,4.056,0,0,0,20.54,16.99h.24A3.961,3.961,0,0,0,23.709,14.4H25.15a1.8,1.8,0,0,1,1.441.672l-5.858,3.025-5.954-3.025A1.8,1.8,0,0,1,16.219,14.4ZM10.7,23.328a.552.552,0,0,1-.288-.432V20.063a.461.461,0,0,1,.288-.432,6.39,6.39,0,0,1,2.4-.816h.048a.555.555,0,0,1,.576.576.584.584,0,0,1-.576.576h-.1l-1.152.24a.5.5,0,0,0-.384.576.468.468,0,0,0,.48.384h.1l1.056-.24a.545.545,0,0,1,.576.528.618.618,0,0,1-.576.576l-1.056-.192a.49.49,0,1,0-.192.96l1.152.24h.1a.468.468,0,0,1,.432.192.545.545,0,0,1,.144.384c0,.288-.336.528-.672.528v.48L13,24.145a2.918,2.918,0,0,1-1.2-.288A5.408,5.408,0,0,1,10.7,23.328Zm1.825,1.729a1.97,1.97,0,0,0,.528.048H13.1a1.587,1.587,0,0,0,1.633-1.441,1.317,1.317,0,0,0-.384-1.1h0a1.62,1.62,0,0,0,.432-1.056,1.49,1.49,0,0,0-.432-1.056,1.62,1.62,0,0,0,.432-1.056,1.571,1.571,0,0,0-1.489-1.537h-.048a2.537,2.537,0,0,0-.624.048V14.877l7.635,4.034V30.435L12.521,26.5ZM28.943,26.5l-7.731,3.985V18.959l6.338-3.265h0l1.393-.72V18a2.738,2.738,0,0,0-.624-.048h-.048a1.571,1.571,0,0,0-1.489,1.537,1.49,1.49,0,0,0,.432,1.056,1.62,1.62,0,0,0-.432,1.056,1.49,1.49,0,0,0,.432,1.056h0a1.371,1.371,0,0,0-.384,1.1A1.587,1.587,0,0,0,28.463,25.2h.048C29.472,25.057,28.607,25.105,28.943,26.5Zm2.113-3.553a.461.461,0,0,1-.288.432,5.989,5.989,0,0,1-2.353.816h-.048a.677.677,0,0,1-.672-.528.545.545,0,0,1,.144-.384.521.521,0,0,1,.432-.192h0a8.81,8.81,0,0,0,1.248-.24.5.5,0,0,0,.384-.576c-.144-.72-1.1-.192-1.633-.144a.555.555,0,0,1-.576-.576.545.545,0,0,1,.576-.528c.48.048,1.489.576,1.633-.144a.486.486,0,0,0-.384-.576l-1.1-.288h-.1a.555.555,0,0,1-.576-.576.584.584,0,0,1,.576-.576h.048a5.506,5.506,0,0,1,2.4.816.552.552,0,0,1,.288.432Z" fill="#b7b7b7"/>
  </g>
</svg>
