<svg xmlns="http://www.w3.org/2000/svg" width="21.767" height="20.893" viewBox="0 0 21.767 20.893">
  <g id="logo" transform="translate(-7.493 -9.2)">
    <path id="Path_21" data-name="Path 21" d="M35.274,10.495a6.684,6.684,0,0,1,7.758.768l1.178,1.024-1.536-.307a8.606,8.606,0,0,0-5.94,1.05,8.489,8.489,0,0,0-3.866,4.609l-.512,1.485-.307-1.536A6.731,6.731,0,0,1,35.274,10.495Z" transform="translate(-18.177 -0.296)"/>
    <path id="Path_22" data-name="Path 22" d="M20.206,22.361l1.485.512L20.667,21.7a8.556,8.556,0,0,1-2.074-5.659,8.507,8.507,0,0,1,2.074-5.659L21.716,9.2l-1.485.512a6.685,6.685,0,0,0-.026,12.649Z" transform="translate(-6.105)" fill="#fff5eb"/>
    <path id="Path_23" data-name="Path 23" d="M14.178,48.525a6.652,6.652,0,0,0,4.4-1.664l1.178-1.024-1.536.307a8.469,8.469,0,0,1-5.94-1.05,8.489,8.489,0,0,1-3.866-4.609L7.9,39l-.282,1.536a6.676,6.676,0,0,0,3.226,7.092A6.438,6.438,0,0,0,14.178,48.525Z" transform="translate(0 -22.17)"/>
    <path id="Path_24" data-name="Path 24" d="M32.237,54.636,31.929,53.1l-.512,1.485a8.6,8.6,0,0,1-3.866,4.609,8.248,8.248,0,0,1-5.915,1.05L20.1,59.936l1.178,1.024a6.652,6.652,0,0,0,4.4,1.664,6.859,6.859,0,0,0,3.354-.9,6.642,6.642,0,0,0,3.2-7.092Z" transform="translate(-9.379 -32.66)" fill="#fff5eb"/>
    <path id="Path_25" data-name="Path 25" d="M62.385,37.912,60.9,37.4l1.05,1.178a8.756,8.756,0,0,1,0,11.317L60.9,51.073l1.485-.512a6.679,6.679,0,0,0,0-12.649Z" transform="translate(-39.732 -20.98)"/>
    <path id="Path_26" data-name="Path 26" d="M53.436,24.695a6.684,6.684,0,0,0-7.758.768L44.5,26.487l1.536-.307a8.81,8.81,0,0,1,9.807,5.659l.512,1.485.307-1.536A6.676,6.676,0,0,0,53.436,24.695Z" transform="translate(-27.531 -10.86)" fill="#fff5eb"/>
  </g>
</svg>
