<svg xmlns="http://www.w3.org/2000/svg" xmlns:xlink="http://www.w3.org/1999/xlink" width="6.5" height="7.682" viewBox="0 0 6.5 7.682">
  <defs>
    <clipPath id="clip-path">
      <rect id="Rectangle_45" data-name="Rectangle 45" width="6.5" height="7.682" rx="3.25" transform="translate(6 98)" fill="#fff"/>
    </clipPath>
  </defs>
  <g id="opinion" transform="translate(-6 -98)" clip-path="url(#clip-path)">
    <g id="g2991" transform="translate(6 99.055)">
      <path id="path2993" d="M3.25-258.821a3.762,3.762,0,0,0-1.384.252,2.6,2.6,0,0,0-1.023.68,1.371,1.371,0,0,0-.379.925,1.324,1.324,0,0,0,.259.774,2.211,2.211,0,0,0,.731.637l.316.181-.1.348a2.6,2.6,0,0,1-.254.624,3.577,3.577,0,0,0,1-.62l.156-.138.207.022a4.1,4.1,0,0,0,.472.029,3.762,3.762,0,0,0,1.384-.252,2.6,2.6,0,0,0,1.023-.68,1.371,1.371,0,0,0,.379-.925,1.371,1.371,0,0,0-.379-.925,2.6,2.6,0,0,0-1.023-.68A3.762,3.762,0,0,0,3.25-258.821Zm3.25,1.857a1.809,1.809,0,0,1-.435,1.166,2.94,2.94,0,0,1-1.182.845,4.217,4.217,0,0,1-1.632.31,4.96,4.96,0,0,1-.526-.029,3.965,3.965,0,0,1-1.669.878,2.733,2.733,0,0,1-.414.08H.624a.145.145,0,0,1-.1-.038.185.185,0,0,1-.058-.1v0a.048.048,0,0,1,0-.044.1.1,0,0,0,.007-.036s0-.016.016-.034L.511-254l.025-.031a.262.262,0,0,1,.029-.033l.112-.125.125-.138q.038-.042.112-.143a1.475,1.475,0,0,0,.118-.185q.044-.083.1-.214a2.305,2.305,0,0,0,.094-.276,2.663,2.663,0,0,1-.9-.8A1.76,1.76,0,0,1,0-256.964a1.809,1.809,0,0,1,.435-1.166,2.94,2.94,0,0,1,1.182-.845,4.216,4.216,0,0,1,1.632-.31,4.216,4.216,0,0,1,1.632.31,2.94,2.94,0,0,1,1.182.845A1.809,1.809,0,0,1,6.5-256.964Z" transform="translate(0 259.286)"/>
    </g>
  </g>
</svg>
