<svg id="profileIcon" xmlns="http://www.w3.org/2000/svg" width="30" height="30" viewBox="0 0 30 30">
  <g id="Path" transform="translate(7.954)" fill="none" stroke-miterlimit="10">
    <path d="M6.322,14.8c3.491,0,6.322-3.314,6.322-7.4S11.714,0,6.322,0,0,3.314,0,7.4,2.83,14.8,6.322,14.8Z" stroke="none"/>
    <path d="M 6.321707248687744 13.80407810211182 C 9.256007194519043 13.80407810211182 11.64323711395264 10.93214893341064 11.64323711395264 7.402078628540039 C 11.64323711395264 5.158078670501709 11.34503746032715 3.716658592224121 10.67634677886963 2.728398561477661 C 9.889407157897949 1.565358519554138 8.464986801147461 0.9999985694885254 6.321707248687744 0.9999985694885254 C 4.178397178649902 0.9999985694885254 2.753947019577026 1.56536853313446 1.966957092285156 2.728418588638306 C 1.298217177391052 3.716708660125732 0.9999971389770508 5.158118724822998 0.9999971389770508 7.402078628540039 C 0.9999971389770508 10.93214893341064 3.387307167053223 13.80407810211182 6.321707248687744 13.80407810211182 M 6.321707248687744 14.80407810211182 C 2.830387115478516 14.80407810211182 -2.873535095204716e-06 11.49010848999023 -2.873535095204716e-06 7.402078628540039 C -2.873535095204716e-06 3.313968658447266 0.9294371008872986 -1.425781306352292e-06 6.321707248687744 -1.425781306352292e-06 C 11.71397686004639 -1.425781306352292e-06 12.64323711395264 3.313968658447266 12.64323711395264 7.402078628540039 C 12.64323711395264 11.49010848999023 9.812847137451172 14.80407810211182 6.321707248687744 14.80407810211182 Z" stroke="none" fill="#b7b7b7"/>
  </g>
  <g id="Path-2" data-name="Path" transform="translate(2.166 25.316)" fill="none" stroke-miterlimit="10">
    <path d="M.051.135c0-.262,0-.074,0,0Z" stroke="none"/>
    <path d="M 0.05116701498627663 0.134583368897438 C 0.04918006435036659 0.08905627578496933 0.04903222620487213 1.176214254883234e-06 0.0495886541903019 1.176214254883234e-06 C 0.04993396252393723 1.176214254883234e-06 0.05055049061775208 0.03430045768618584 0.05116701498627663 0.134583368897438 Z" stroke="none" fill="#b7b7b7"/>
  </g>
  <g id="Path-3" data-name="Path" transform="translate(26.303 25.268)" fill="none" stroke-miterlimit="10">
    <path d="M.049.221c.005-.067,0-.463,0,0Z" stroke="none"/>
    <path d="M 0.04898888245224953 0.221465066075325 C 0.04961565509438515 0.05561098083853722 0.0504501573741436 -6.705903956572001e-07 0.051028061658144 -6.705903956572001e-07 C 0.0520637221634388 -6.705903956572001e-07 0.05227513238787651 0.1786218732595444 0.04898888245224953 0.221465066075325 Z" stroke="none" fill="#b7b7b7"/>
  </g>
  <g id="Path-4" data-name="Path" transform="translate(2.207 15.862)" fill="none" stroke-miterlimit="10">
    <path d="M24.124,9.629C24.005,3.058,23.03,1.185,15.568,0a4.75,4.75,0,0,1-3.5,1.178A4.751,4.751,0,0,1,8.57,0C1.189,1.172.154,3.017.018,9.415.007,9.938,0,9.965,0,9.9c0,.114,0,.324,0,.69,0,0,1.777,3.152,12.068,3.152s12.068-3.152,12.068-3.152c0-.235,0-.4,0-.511A3.726,3.726,0,0,1,24.124,9.629Z" stroke="none"/>
    <path d="M 12.06881046295166 12.74664115905762 C 16.96183967590332 12.74664115905762 19.76424026489258 12.00808143615723 21.25356101989746 11.38851165771484 C 22.34945487976074 10.93260765075684 22.90090560913086 10.47768020629883 23.13680839538574 10.24039077758789 C 23.13684844970703 10.20654106140137 23.13689422607422 10.17550563812256 23.13694381713867 10.14709568023682 C 23.13631248474121 10.13830852508545 23.13577461242676 10.12951469421387 23.13533020019531 10.1206111907959 C 23.13433074951172 10.10074138641357 23.13311004638672 10.06948184967041 23.13179969787598 10.02385139465332 C 23.12969970703125 9.950541496276855 23.12703132629395 9.83109188079834 23.12372970581055 9.646641731262207 C 23.06949043273926 6.634651660919189 22.84035110473633 4.652291297912598 21.82966995239258 3.432721614837646 C 20.90496063232422 2.316898345947266 19.16252899169922 1.620198011398315 15.86592864990234 1.062226891517639 C 15.26058006286621 1.514418721199036 14.03692150115967 2.177951574325562 12.06881046295166 2.177951574325562 C 10.10056972503662 2.177951574325562 8.87688159942627 1.514390110969543 8.271537780761719 1.06221342086792 C 5.004541873931885 1.615002036094666 3.270944833755493 2.300992965698242 2.338640689849854 3.396081447601318 C 1.316040515899658 4.597241401672363 1.080080628395081 6.520421504974365 1.018090605735779 9.436521530151367 C 1.013630628585815 9.645271301269531 1.010070562362671 9.777481079101562 1.007290601730347 9.857511520385742 C 1.005520582199097 9.908631324768066 1.003870606422424 9.943081855773926 1.002560615539551 9.964751243591309 C 1.001935362815857 9.975054740905762 1.001187324523926 9.985228538513184 1.000310182571411 9.995375633239746 C 1.000492334365845 10.05884265899658 1.000667691230774 10.13929462432861 1.00079607963562 10.24038028717041 C 1.236685633659363 10.4776668548584 1.788149952888489 10.93262767791748 2.88403058052063 11.38853168487549 C 4.373330593109131 12.00809192657471 7.17573070526123 12.74664115905762 12.06881046295166 12.74664115905762 M 12.06881046295166 13.74664115905762 C 1.777620553970337 13.74664115905762 0.001000573160126805 10.59479141235352 0.001000573160126805 10.59479141235352 C 0.001000573160126805 10.22826194763184 0.0004505731340032071 10.01807117462158 5.731201326852897e-07 9.904431343078613 C 0.0004528436402324587 9.918147087097168 0.001066610217094421 9.927356719970703 0.001874909037724137 9.927355766296387 C 0.004641014616936445 9.927352905273438 0.009684242308139801 9.819482803344727 0.01832057349383831 9.4151611328125 C 0.1543405801057816 3.01690149307251 1.188830614089966 1.17229151725769 8.56980037689209 1.533203089820745e-06 C 8.56980037689209 1.533203089820745e-06 9.620430946350098 1.177951574325562 12.06881046295166 1.177951574325562 C 14.5172004699707 1.177951574325562 15.56765079498291 1.533203089820745e-06 15.56765079498291 1.533203089820745e-06 C 23.03005027770996 1.185211539268494 24.00522994995117 3.057601451873779 24.12357139587402 9.628631591796875 C 24.1299934387207 9.987201690673828 24.13384246826172 10.0927848815918 24.13606834411621 10.0927848815918 C 24.13645172119141 10.0927848815918 24.13678741455078 10.0896520614624 24.13708114624023 10.08414173126221 C 24.13681030273438 10.19554138183594 24.13663101196289 10.35930156707764 24.13663101196289 10.59479141235352 C 24.13663101196289 10.59479141235352 22.35983085632324 13.74664115905762 12.06881046295166 13.74664115905762 Z" stroke="none" fill="#b7b7b7"/>
  </g>
  <g id="Background" fill="none" stroke="#b7b7b7" stroke-miterlimit="10" stroke-width="1" opacity="0">
    <rect width="30" height="30" stroke="none"/>
    <rect x="0.5" y="0.5" width="29" height="29" fill="none"/>
  </g>
</svg>
