<svg xmlns="http://www.w3.org/2000/svg" width="13.506" height="19.5" viewBox="0 0 13.506 19.5">
  <g id="question" transform="translate(37.659 32.183) rotate(180)">
    <path id="Path_19" data-name="Path 19" d="M39.31,64.807a2.91,2.91,0,0,0-2.966,2.916v.05a2.966,2.966,0,0,0,5.932,0v-.05A2.91,2.91,0,0,0,39.31,64.807Zm1.4,2.966a1.4,1.4,0,0,1-2.8,0v-.05a1.4,1.4,0,0,1,2.8,0Z" transform="translate(-9.006 -38.505)" fill="#fff5eb"/>
    <path id="Path_20" data-name="Path 20" d="M30.806,12.683a8.7,8.7,0,0,0-5.719,1.987,2.532,2.532,0,0,0,1.606,4.5,2.7,2.7,0,0,0,1.6-.558,3.9,3.9,0,0,1,2.439-.846c1.011,0,1.523.335,1.523,1v.05c0,.326,0,1.088-2.5,1.4a2.133,2.133,0,0,0-1.464.8,2.073,2.073,0,0,0-.368,1.6l.251,1.706a2.17,2.17,0,0,0,2.13,1.9h.2A2.171,2.171,0,0,0,32.621,24.4c3.344-.822,5.038-2.735,5.038-5.691v-.05C37.659,15.028,34.969,12.683,30.806,12.683Zm5.286,6.026c0,2.353-1.33,3.671-4.312,4.273a.784.784,0,0,0-.618.639l-.077.461a.624.624,0,0,1-.58.564h-.2a.6.6,0,0,1-.579-.559l-.251-1.709a.572.572,0,0,1,.068-.42.6.6,0,0,1,.41-.19c.957-.121,3.87-.49,3.87-2.96v-.05c0-1.24-.812-2.564-3.091-2.564a5.463,5.463,0,0,0-3.38,1.16,1.142,1.142,0,0,1-.659.245,1,1,0,0,1-.972-.972.968.968,0,0,1,.369-.751,7.081,7.081,0,0,1,4.716-1.625c3.31,0,5.286,1.648,5.286,4.408v.05Z" transform="translate(0)" fill="#fff5eb"/>
  </g>
</svg>
