<svg xmlns="http://www.w3.org/2000/svg" width="11.864" height="14.16" viewBox="0 0 11.864 14.16">
  <path id="Bookmark" d="M698.277,990.76a.446.446,0,0,1-.348-.139l-5.079-4.453-5.079,4.453a.472.472,0,0,1-.557.07.546.546,0,0,1-.313-.487V977.122a.535.535,0,0,1,.522-.522h10.82a.535.535,0,0,1,.522.522V990.2a.525.525,0,0,1-.313.487A.266.266,0,0,1,698.277,990.76Zm-5.393-5.81a.446.446,0,0,1,.348.139l4.558,3.966V977.644h-9.811v11.411l4.558-3.966A.447.447,0,0,1,692.884,984.95Z" transform="translate(-686.9 -976.6)" fill="#262627"/>
</svg>
