<svg id="twitter_" data-name="twitter " xmlns="http://www.w3.org/2000/svg" width="44.785" height="44.785" viewBox="0 0 44.785 44.785">
  <circle id="Ellipse_231" data-name="Ellipse 231" cx="22.392" cy="22.392" r="22.392" transform="translate(0 0)" fill="#74c3ff"/>
  <g id="Group_199" data-name="Group 199" transform="translate(9.883 13.463)">
    <path id="Path_489" data-name="Path 489" d="M51.448,36.563a10.784,10.784,0,0,1-3.1.85,5.42,5.42,0,0,0,2.377-2.99,10.82,10.82,0,0,1-3.432,1.311,5.409,5.409,0,0,0-9.21,4.931,15.343,15.343,0,0,1-11.141-5.648,5.411,5.411,0,0,0,1.672,7.216,5.367,5.367,0,0,1-2.448-.677c0,.023,0,.046,0,.069a5.408,5.408,0,0,0,4.336,5.3,5.426,5.426,0,0,1-2.441.094A5.411,5.411,0,0,0,33.1,50.771a10.911,10.911,0,0,1-8,2.238,15.371,15.371,0,0,0,23.663-12.95c0-.234-.005-.468-.016-.7a10.96,10.96,0,0,0,2.7-2.8Z" transform="translate(-25.103 -34.028)" fill="#fff"/>
  </g>
</svg>
